<svg id="chart" width="1920" height="1080">
<line x1="-20" y1="0" x2="0" y2="720"></line>
<line x1="0" y1="0" x2="65" y2="720"></line>
<line x1="65" y1="0" x2="130" y2="720"></line>
<line x1="130" y1="0" x2="195" y2="720"></line>
<line x1="195" y1="0" x2="260" y2="720"></line>
<line x1="260" y1="0" x2="325" y2="720"></line>
<line x1="325" y1="0" x2="390" y2="720"></line>
<line x1="390" y1="0" x2="455" y2="720"></line>
<line x1="455" y1="0" x2="520" y2="720"></line>
<line x1="520" y1="0" x2="585" y2="720"></line>
<line x1="585" y1="0" x2="650" y2="720"></line>
<line x1="650" y1="0" x2="715" y2="720"></line>
<line x1="715" y1="0" x2="780" y2="720"></line>
<line x1="780" y1="0" x2="845" y2="720"></line>
<line x1="845" y1="0" x2="910" y2="720"></line>
<line x1="910" y1="0" x2="975" y2="720"></line>
<line x1="975" y1="0" x2="1040" y2="720"></line>
<line x1="1040" y1="0" x2="1105" y2="720"></line>
<line x1="1105" y1="0" x2="1170" y2="720"></line>
<line x1="1170" y1="0" x2="1235" y2="720"></line>
<line x1="1235" y1="0" x2="1300" y2="720"></line>
</svg>
